<svg version="1.1" id="Layer_1" xmlns="http://www.w3.org/2000/svg" xmlns:xlink="http://www.w3.org/1999/xlink" x="0px" y="0px"
	 width="500px" height="500px" viewBox="0 0 500 500" enable-background="new 0 0 500 500" xml:space="preserve">
<path fill="#010101" d="M251,1C113.485,1,2,112.485,2,250c0,137.5,111.485,249,249,249c137.5,0,249-111.5,249-249
	C499.971,112.5,388.5,1.044,251,1z M251,75.703c41.262,0,74.703,33.441,74.703,74.703S292.262,225.109,251,225.109
	s-74.703-33.441-74.703-74.703S209.738,75.703,251,75.703z M251,429.287c-60.083,0-116.184-30.115-149.406-80.189
	c0.744-49.52,99.594-76.687,149.406-76.687s148.646,27.138,149.406,76.687C367.197,399.172,311.083,429.287,251,429.287z"/>
</svg>
