<svg version="1.1" id="Layer_1" xmlns="http://www.w3.org/2000/svg" xmlns:xlink="http://www.w3.org/1999/xlink" x="0px" y="0px"
	 width="500px" height="500px" viewBox="0 0 500 500" enable-background="new 0 0 500 500" xml:space="preserve">
<g>
	<rect x="195.662" y="305.328" fill="#010101" width="110.656" height="55.338"/>
	<path fill="#010101" d="M416.994,222.332c-0.122-9.271-0.973-18.521-2.492-27.659h57.83l-0.021-55.338h-77.729
		c-12.481-21.651-29.706-40.191-50.354-54.244l45.085-45.085L350.309,1L290.27,61.029c-12.847-3.11-26.037-4.691-39.27-4.711
		c-13.14,0-26.24,1.581-39.006,4.711L151.671,1l-39.006,39.006l44.821,45.085c-20.516,14.144-37.618,32.674-50.069,54.244H29.668
		v55.338h57.831c-1.53,9.139-2.361,18.389-2.493,27.659v27.659H29.668v55.337h55.338v27.659c0.132,9.28,0.963,18.521,2.493,27.659
		H29.668v55.338h77.749c45.683,79.309,146.987,106.542,226.295,60.869c25.289-14.568,46.301-35.581,60.87-60.869h77.749v-55.338
		h-57.83c1.52-9.139,2.37-18.379,2.492-27.659v-27.659h55.338v-55.337h-55.338V222.332z M361.656,332.987
		c-0.102,6.484-0.75,12.968-1.926,19.372l-2.756,17.973l-10.252,17.993c-30.436,52.866-97.982,71.042-150.848,40.587
		c-16.869-9.706-30.871-23.707-40.586-40.587l-10.233-17.689l-2.756-17.993c-1.206-6.484-1.864-13.049-1.976-19.655V222.332
		c0.081-6.495,0.729-12.979,1.925-19.361l2.766-17.983l10.253-17.993c8.358-14.397,19.787-26.768,33.464-36.25l15.764-10.79
		l20.486-4.975c8.49-2.188,17.224-3.313,25.998-3.323c8.855,0.01,17.69,1.125,26.281,3.323l18.824,4.417l16.879,11.621
		c13.8,9.331,25.247,21.742,33.475,36.25l10.496,17.983l2.756,17.993c1.216,6.292,1.864,12.685,1.944,19.088v27.659h0.021V332.987z"
		/>
	<rect x="195.662" y="194.673" fill="#010101" width="110.656" height="55.318"/>
</g>
</svg>
