<svg version="1.1" id="Layer_1" xmlns="http://www.w3.org/2000/svg" xmlns:xlink="http://www.w3.org/1999/xlink" x="0px" y="0px"
	 width="500px" height="500px" viewBox="0 0 500 500" enable-background="new 0 0 500 500" xml:space="preserve">
<g>
	<path fill="#010101" d="M249.228,0c-0.164,0-0.329,0-0.493,0C111.223,0.146-0.146,111.743,0,249.256
		C0.146,386.768,111.743,498.146,249.265,498C386.677,497.854,498,386.422,498,249C498.073,111.542,386.677,0.055,249.228,0z
		 M249.091,448.211c-0.037,0-0.073,0-0.109,0C138.963,448.211,49.771,359.01,49.771,249c0-110.01,89.192-199.211,199.211-199.211
		c110.009,0,199.21,89.201,199.21,199.211C448.211,358.992,359.083,448.192,249.091,448.211z"/>
	<polygon fill="#010101" points="261.438,124.491 224.087,124.491 224.087,273.895 354.815,352.335 373.491,321.695 
		261.438,255.219 	"/>
</g>
</svg>