<svg version="1.1" id="Layer_1" xmlns="http://www.w3.org/2000/svg" xmlns:xlink="http://www.w3.org/1999/xlink" x="0px" y="0px"
	 width="500px" height="500px" viewBox="0 0 500 500" enable-background="new 0 0 500 500" xml:space="preserve">
<g>
	<path fill="#010101" d="M407.468,0.221L181.104,0c-24.969,0.089-45.196,20.293-45.273,45.273v67.909h45.273V90.546h226.363v316.909
		H181.104v-22.637h-45.273v67.909c0.077,24.979,20.304,45.185,45.273,45.272h226.363c24.979-0.088,45.185-20.293,45.273-45.272
		V45.273C452.608,20.36,432.382,0.221,407.468,0.221z"/>
	<path fill="#010101" d="M187.67,357.43l4.531-29.888c6.986-2.896,13.595-6.609,19.686-11.075l28.98,11.318
		c2.631,1.105,5.681,0.022,7.019-2.498l23.311-39.148c1.415-2.432,0.84-5.527-1.359-7.252l-24.902-18.789
		c0.542-3.67,0.84-7.384,0.906-11.098c-0.066-3.713-0.365-7.428-0.906-11.097l24.449-18.569c2.222-1.724,2.808-4.819,1.359-7.229
		l-23.311-39.149c-1.437-2.432-4.388-3.471-7.019-2.498l-28.98,11.318c-6.09-4.487-12.7-8.201-19.686-11.097l-4.532-30.108
		c-0.177-2.808-2.608-4.93-5.416-4.753c0,0-0.011,0-0.022,0h-46.4c-2.852-0.044-5.338,1.945-5.88,4.753l-4.532,29.887
		c-6.985,2.896-13.606,6.61-19.696,11.075l-28.969-11.318c-2.631-1.105-5.682-0.022-7.019,2.498L45.96,211.862
		c-1.36,2.564-0.696,5.704,1.591,7.472l24.449,18.569c-0.453,3.669-0.685,7.384-0.685,11.097c0.066,3.714,0.375,7.428,0.906,11.098
		l-24.67,18.789c-2.222,1.725-2.807,4.82-1.359,7.252l23.311,39.148c1.437,2.41,4.388,3.449,7.019,2.498l28.981-11.318
		c6.09,4.466,12.7,8.18,19.685,11.075l4.532,29.888c0.376,2.807,2.83,4.885,5.659,4.752h46.632
		C184.84,362.314,187.294,360.236,187.67,357.43z M119.959,247.895c0.608-21.884,18.845-39.127,40.73-38.508
		c21.454,0.575,38.531,18.149,38.52,39.613c-0.321,22.194-18.558,39.924-40.741,39.613
		C136.583,287.995,119.341,269.779,119.959,247.895z"/>
</g>
</svg>
