<svg version="1.1" id="Layer_1" xmlns="http://www.w3.org/2000/svg" xmlns:xlink="http://www.w3.org/1999/xlink" x="0px" y="0px"
	 width="500px" height="500px" viewBox="0 0 500 500" enable-background="new 0 0 500 500" xml:space="preserve">
<g>
	<polygon fill="#010101" points="216.617,317.906 261.896,317.906 261.896,159.44 103.457,159.44 103.457,204.72 184.706,204.72 
		58.177,331.25 90.088,363.16 216.617,236.631 	"/>
	<path fill="#010101" d="M397.711,1.212L171.364,1c-24.974,0.08-45.201,20.306-45.28,45.28v67.907h45.28V91.533h226.347v316.906
		H171.364v-22.626h-45.28v67.907c0.08,24.986,20.306,45.199,45.28,45.279h226.347c24.986-0.08,45.199-20.293,45.279-45.279V46.28
		C442.91,21.346,422.645,1.172,397.711,1.212z"/>
</g>
</svg>