<svg version="1.1" id="Layer_1" xmlns="http://www.w3.org/2000/svg" xmlns:xlink="http://www.w3.org/1999/xlink" x="0px" y="0px"
	 width="500px" height="500px" viewBox="0 0 500 500" enable-background="new 0 0 500 500" xml:space="preserve">
<g>
	<path fill="#010101" d="M114.05,386.949l186.993-86.906L387.95,113.05l-186.993,86.907L114.05,386.949z M251,222.607
		c15.125,0,27.381,12.268,27.381,27.393S266.125,277.381,251,277.381S223.607,265.125,223.607,250S235.875,222.607,251,222.607z"/>
	<path fill="#010101" d="M251,1C113.479,1,2,112.479,2,250c0,137.533,111.479,249,249,249c137.533,0,249-111.467,249-249
		C500,112.479,388.533,1,251,1z M251,449.199c-110.02,0-199.2-89.191-199.2-199.199C51.8,139.98,140.98,50.8,251,50.8
		c110.008,0,199.2,89.181,199.2,199.2C450.055,359.959,360.959,449.055,251,449.199z"/>
</g>
</svg>
