<svg version="1.1" id="Layer_1" xmlns="http://www.w3.org/2000/svg" xmlns:xlink="http://www.w3.org/1999/xlink" x="0px" y="0px"
	 width="500px" height="500px" viewBox="0 0 500 500" enable-background="new 0 0 500 500" xml:space="preserve">
<path fill="#010101" d="M450.57,112.799c-0.146,0-0.262,0-0.379,0h-54.303c13.832-38.765-6.36-81.395-45.14-95.226
	c-32.359-11.54-68.425,0.54-87.304,29.252l-12.459,16.676l-12.459-16.938c-22.555-34.446-68.76-44.089-103.206-21.534
	c-28.917,18.938-41.026,55.265-29.252,87.771H51.81c-27.297-0.088-49.488,21.972-49.575,49.269c0,0.175,0,0.365,0,0.54
	L2.001,436.512c-0.102,27.428,22.045,49.721,49.444,49.809c0.131,0,0.248,0,0.365,0h398.382
	c27.399,0.088,49.691-22.03,49.809-49.459c0-0.116,0-0.232,0-0.35V162.608C500.117,135.194,477.941,112.901,450.57,112.799z
	 M325.685,63.02c13.743,0,24.89,11.146,24.89,24.89c0,13.744-11.146,24.89-24.89,24.89s-24.89-11.146-24.89-24.89
	C300.824,74.181,311.971,63.063,325.685,63.02z M176.288,63.02c13.743,0,24.89,11.146,24.89,24.89
	c0,13.744-11.146,24.89-24.89,24.89s-24.89-11.146-24.89-24.89C151.441,74.181,162.559,63.063,176.288,63.02z M450.191,436.512
	H51.81v-49.809h398.382V436.512z M450.191,312.005H51.81V162.608h126.477l-51.778,70.453l40.34,29.135l59.248-80.68l24.89-33.848
	l24.889,33.848l59.264,80.68l40.325-29.135L323.7,162.608h126.491V312.005z"/>
</svg>
