<svg version="1.1" id="Layer_1" xmlns="http://www.w3.org/2000/svg" xmlns:xlink="http://www.w3.org/1999/xlink" x="0px" y="0px"
	 width="500px" height="500px" viewBox="0 0 500 500" enable-background="new 0 0 500 500" xml:space="preserve">
<g>
	<rect x="226.1" y="349.6" fill="#010101" width="49.8" height="49.801"/>
	<path fill="#010101" d="M251,1C113.479,1,2,112.479,2,250c0,137.533,111.479,249,249,249c137.533,0,249-111.467,249-249
		C500,112.479,388.533,1,251,1z M251,449.199c-110.02,0-199.2-89.191-199.2-199.199C51.8,139.98,140.98,50.8,251,50.8
		c110.008,0,199.2,89.181,199.2,199.2C450.055,359.959,360.959,449.055,251,449.199z"/>
	<path fill="#010101" d="M251,100.6c-55.004,0-99.6,44.596-99.6,99.6h49.8c0-27.501,22.298-49.8,49.8-49.8s49.8,22.298,49.8,49.8
		c0,49.8-74.7,43.575-74.7,124.5h49.8c0-56.024,74.699-62.25,74.699-124.5C350.6,145.196,306.004,100.6,251,100.6z"/>
</g>
</svg>
