<svg version="1.1" id="Layer_1" xmlns="http://www.w3.org/2000/svg" xmlns:xlink="http://www.w3.org/1999/xlink" x="0px" y="0px"
	 width="500px" height="500px" viewBox="0 0 500 500" enable-background="new 0 0 500 500" xml:space="preserve">
<g>
	<path fill="#010101" d="M270.641,352.565c0.283,0.259,0.565,0.518,0.872,0.754c4.22,3.818,9.712,5.939,15.393,5.939
		c6.836-0.117,13.318-3.135,17.797-8.297l74.653-86.486c7.708-8.84,7.708-21.994,0-30.833l-74.677-86.534
		c-8.18-10.089-22.982-11.668-33.095-3.489c-10.113,8.156-11.692,22.983-3.513,33.095c0.33,0.401,0.684,0.802,1.037,1.179
		l40.874,47.404H160.04c-13.083,0-23.69,10.607-23.69,23.69c0,13.107,10.607,23.714,23.69,23.714h149.966l-40.897,47.428
		C260.575,329.511,261.259,344.032,270.641,352.565z"/>
	<path fill="#010101" d="M474.8,312.421c-12.116-4.902-25.906,0.943-30.832,13.06C401.749,428.444,284.029,477.71,181.066,435.468
		C78.079,393.251,28.836,275.53,71.054,172.567C113.272,69.58,230.992,20.337,333.979,62.555
		c49.902,20.46,89.527,60.085,109.988,110.012c4.926,12.116,18.716,17.938,30.832,13.012c12.115-4.903,17.938-18.716,13.035-30.809
		C435.788,27.503,290.44-33.455,163.175,18.593C35.932,70.664-25.026,216.01,27.021,343.254
		c52.047,127.243,197.417,188.2,324.66,136.153c61.807-25.27,110.86-74.348,136.153-136.153
		C492.737,331.138,486.915,317.348,474.8,312.421z"/>
</g>
</svg>
