<svg version="1.1" id="Layer_1" xmlns="http://www.w3.org/2000/svg" xmlns:xlink="http://www.w3.org/1999/xlink" x="0px" y="0px"
	 width="500px" height="500px" viewBox="0 0 500 500" enable-background="new 0 0 500 500" xml:space="preserve">
<g>
	<path fill="#010101" d="M334,167H168v166h166V167z M278.66,277.66h-55.32v-55.32h55.34L278.66,277.66z"/>
	<path fill="#010101" d="M500,222.34V167h-55.34v-55.34c-0.102-30.527-24.823-55.249-55.34-55.34H334V1h-55.34v55.34h-55.32V1H168
		v55.34h-55.34c-30.507,0.102-55.219,24.813-55.32,55.32V167H2v55.34h55.34v55.34H2V333h55.34v55.34
		c0.091,30.537,24.813,55.26,55.34,55.34H168V499h55.34v-55.34h55.34V499H334v-55.34h55.34c30.537-0.102,55.26-24.823,55.34-55.34
		V333H500v-55.34h-55.34v-55.32H500z M389.34,388.34H112.66V111.66h276.68V388.34z"/>
</g>
</svg>
