<svg version="1.1" id="Layer_1" xmlns="http://www.w3.org/2000/svg" xmlns:xlink="http://www.w3.org/1999/xlink" x="0px" y="0px"
	 width="500px" height="500px" viewBox="0 0 500 500" enable-background="new 0 0 500 500" xml:space="preserve">
<g>
	<path fill="#010101" d="M251,499.25c28.182-0.1,50.978-22.896,51.077-51.077H199.923C200.01,476.354,222.831,499.15,251,499.25z"/>
	<path fill="#010101" d="M404.23,346.02V218.327c0-78.399-41.625-144.041-114.923-161.399V39.558
		c0-21.162-17.158-38.308-38.308-38.308c-21.162,0-38.308,17.146-38.308,38.308v17.371
		C139.656,74.287,97.769,139.667,97.769,218.327V346.02l-51.077,51.076v25.539h408.615v-25.539L404.23,346.02z M353.154,371.558
		H148.846v-153.23c0-63.335,38.557-114.923,102.154-114.923c63.597,0,102.154,51.588,102.154,114.923V371.558z"/>
</g>
</svg>
