<svg version="1.1" id="Layer_1" xmlns="http://www.w3.org/2000/svg" xmlns:xlink="http://www.w3.org/1999/xlink" x="0px" y="0px"
	 width="500px" height="500px" viewBox="0 0 500 500" enable-background="new 0 0 500 500" xml:space="preserve">
<path fill="#010101" d="M459.217,288.033c4.438-90.965-50.318-174.131-134.022-206.621C322.652,41.357,289.694,9.569,249,9.569
	c-40.671,0-73.613,31.757-76.171,71.796C87.581,114.261,34.011,198.472,38.534,288.174C15.605,301.432,0,325.936,0,354.323
	c0,42.332,34.322,76.662,76.662,76.662c8.267,0,16.089-1.653,23.553-4.07c39.431,39.445,92.938,61.594,148.723,61.516
	c28.186,0.031,56.089-5.631,82.012-16.643c25.02-10.621,47.573-25.953,66.642-44.936c7.518,2.464,15.402,4.133,23.747,4.133
	c42.348,0,76.662-34.33,76.662-76.662C498,325.826,482.285,301.261,459.217,288.033z M249,48.033
	c15.434,0,28.645,9.171,34.729,22.305c2.301,5.022,3.532,10.466,3.517,15.987c0,3.759-0.624,7.456-1.692,11.012
	c-0.094,0.312-0.188,0.624-0.288,0.936c-1.17,3.541-2.784,6.941-4.96,10.029c0.023,0,0.047,0.016,0.062,0.016
	c-6.926,9.889-18.366,16.393-31.367,16.393c-13.11,0-24.66-6.613-31.569-16.658c-0.32-0.452-0.546-0.936-0.843-1.404
	c-0.928-1.482-1.786-3.01-2.511-4.632c-0.273-0.608-0.499-1.232-0.749-1.856c-0.632-1.638-1.162-3.307-1.567-5.054
	c-0.125-0.53-0.273-1.061-0.374-1.606c-0.437-2.324-0.718-4.695-0.718-7.128c0-1.685,0.289-3.291,0.499-4.913
	c0.117-0.983,0.117-1.966,0.312-2.917c0.32-1.528,0.881-2.963,1.373-4.414c0.351-1.045,0.624-2.105,1.068-3.119
	C219.848,57.501,233.301,48.033,249,48.033z M38.331,354.464c0-9.438,3.541-17.969,9.195-24.645
	c0.928-1.107,1.856-2.199,2.901-3.182c1.006-0.951,2.09-1.794,3.19-2.637c1.115-0.842,2.27-1.621,3.47-2.34
	c1.139-0.686,2.293-1.341,3.502-1.902c1.38-0.64,2.815-1.123,4.266-1.591c1.178-0.39,2.332-0.827,3.564-1.107
	c1.833-0.39,3.735-0.546,5.631-0.671c0.881-0.062,1.716-0.266,2.612-0.266c21.174,0,38.339,17.158,38.339,38.34
	c0,8.297-2.698,15.925-7.183,22.195c-0.008-0.016-0.016-0.016-0.023-0.031c-1.778,2.48-3.829,4.695-6.091,6.645
	c-0.07,0.062-0.148,0.109-0.226,0.188c-6.863,5.833-15.645,9.155-24.847,9.14c-0.936,0.016-1.864-0.047-2.8-0.094
	C54.015,391.024,38.331,374.663,38.331,354.464z M133.477,405.374c12.213-13.586,19.855-31.352,19.855-51.051
	c0-42.348-34.322-76.678-76.67-76.678c-0.008,0-0.016,0-0.023,0c0.008-69.784,41.927-131.067,103.748-157.848
	c12.47,25.424,38.37,43.096,68.614,43.096c30.229,0,56.12-17.641,68.605-43.049c61.76,26.828,103.639,88.064,103.678,157.801
	c-42.324,0.031-76.607,34.346-76.607,76.678c0,19.684,7.627,37.434,19.824,51.02C298.998,464.816,198.979,464.801,133.477,405.374z
	 M425.604,392.351c-1.427,0.171-2.854,0.249-4.297,0.249c-6.13,0-12.08-1.481-17.399-4.181c-0.077-0.047-0.155-0.094-0.233-0.14
	c-2.465-1.264-4.766-2.854-6.91-4.633c-0.227-0.187-0.46-0.374-0.686-0.562c-2.146-1.887-4.118-3.992-5.826-6.348
	c-4.516-6.286-7.237-13.945-7.237-22.273c0-21.182,17.157-38.34,38.323-38.34c0.172,0,0.335,0.047,0.515,0.047
	c2.698,0.047,5.358,0.375,7.947,0.968c0.803,0.171,1.544,0.483,2.323,0.718c1.942,0.576,3.854,1.248,5.678,2.121
	c0.819,0.39,1.6,0.842,2.379,1.295c1.7,0.967,3.314,2.059,4.851,3.275c0.687,0.545,1.373,1.076,2.021,1.652
	c1.7,1.561,3.252,3.275,4.671,5.133c4.913,6.441,7.939,14.396,7.939,23.131C459.661,374.163,444.734,390.214,425.604,392.351z"/>
</svg>
