<svg version="1.1" id="Layer_1" xmlns="http://www.w3.org/2000/svg" xmlns:xlink="http://www.w3.org/1999/xlink" x="0px" y="0px"
	 width="500px" height="500px" viewBox="0 0 500 500" enable-background="new 0 0 500 500" xml:space="preserve">
<g>
	<path fill="#010101" d="M341.533,272.641c-6.578,0-14.031,0.478-21.937,1.141c26.95,16.95,43.661,46.262,44.59,78.093v56.58H500
		v-56.606C499.974,299.113,394.294,272.641,341.533,272.641z"/>
	<path fill="#010101" d="M340.977,227.361c0.212,0,0.371,0,0.557,0c37.508,0,67.907-30.399,67.907-67.907
		s-30.399-67.907-67.907-67.907s-67.906,30.399-67.906,67.907C273.494,196.803,303.628,227.215,340.977,227.361z"/>
	<path fill="#010101" d="M159.896,227.361c0.186,0,0.358,0,0.544,0c37.508,0,67.906-30.399,67.906-67.907
		s-30.398-67.907-67.906-67.907c-37.508,0-67.907,30.399-67.907,67.907C92.388,196.803,122.548,227.215,159.896,227.361z"/>
	<path fill="#010101" d="M160.44,272.641C107.72,272.641,2,299.113,2,351.848v56.58h316.906v-56.58
		C318.906,299.113,213.187,272.641,160.44,272.641z"/>
</g>
</svg>