<svg version="1.1" id="Layer_1" xmlns="http://www.w3.org/2000/svg" xmlns:xlink="http://www.w3.org/1999/xlink" x="0px" y="0px"
	 width="500px" height="500px" viewBox="0 0 500 500" enable-background="new 0 0 500 500" xml:space="preserve">
<g>
	<path fill="#010101" d="M489.148,280.633c-0.438-0.717-0.9-1.417-1.401-2.096l-8.975-13.057c-7.749-10.707-7.749-25.189,0-35.896
		l8.975-13.057c9.775-13.997,6.354-33.27-7.649-43.038c-0.947-0.663-1.934-1.279-2.95-1.826l-13.866-7.349
		c-11.508-6.124-17.764-18.965-15.498-31.807l2.441-15.499c2.827-16.801-8.488-32.7-25.281-35.527
		c-1.087-0.185-2.173-0.308-3.274-0.377l-15.499-0.786c-12.979-0.716-24.096-9.544-27.731-22.023l-4.083-15.499
		c-4.49-16.153-21.229-25.598-37.383-21.099c-1.441,0.401-2.851,0.909-4.214,1.518l-14.69,6.525
		c-12.07,5.153-26.083,2.226-35.08-7.341l-10.6-11.424c-10.978-12.618-30.104-13.943-42.722-2.966
		c-1.055,0.917-2.049,1.911-2.965,2.966l-10.6,12.232c-8.559,9.676-22.27,12.941-34.264,8.158l-14.69-5.708
		c-15.245-6.447-32.831,0.686-39.278,15.93c-0.616,1.44-1.109,2.928-1.487,4.453l-4.075,15.499
		c-3.266,12.856-14.49,22.116-27.739,22.871l-15.499,0.793c-17.001,1.017-29.95,15.63-28.926,32.631
		c0.062,1.094,0.185,2.188,0.37,3.266l2.449,15.499c2.28,13.064-3.937,26.145-15.506,32.63l-13.866,7.349
		c-14.79,8.296-20.052,27.015-11.748,41.805c0.593,1.055,1.248,2.08,1.957,3.058l8.982,13.057c7.75,10.708,7.75,25.182,0,35.89
		l-7.349,11.424c-9.768,13.997-6.348,33.271,7.649,43.045c0.956,0.663,1.941,1.271,2.958,1.818l13.866,7.349
		c11.501,6.132,17.748,18.966,15.483,31.807l-2.442,15.499c-2.827,16.793,8.497,32.692,25.29,35.52
		c1.078,0.177,2.172,0.3,3.258,0.37l15.506,0.785c12.98,0.717,24.096,9.544,27.731,22.023l4.075,15.499
		c4.499,16.153,21.238,25.598,37.384,21.099c1.448-0.4,2.858-0.908,4.221-1.518l14.69-6.524c12.071-5.153,26.083-2.218,35.073,7.349
		l10.607,12.233c10.977,12.617,30.104,13.942,42.722,2.966c1.055-0.925,2.041-1.911,2.966-2.966l10.6-12.233
		c8.558-9.675,22.262-12.941,34.264-8.157l14.689,5.708c15.245,6.463,32.831-0.662,39.294-15.899
		c0.609-1.44,1.109-2.935,1.487-4.452l4.075-15.499c3.266-12.856,14.489-22.116,27.738-22.879l15.499-0.785
		c17.001-1.024,29.95-15.63,28.926-32.631c-0.069-1.094-0.192-2.181-0.37-3.259l-3.266-14.689
		c-2.28-13.064,3.929-26.145,15.499-32.631l13.865-7.342C493.455,314.465,498.092,295.308,489.148,280.633z M251.629,400.902
		c-0.154,0-0.309,0-0.455,0c-84.704,0.909-154.103-67.025-155.011-151.722c-0.901-84.704,67.025-154.103,151.73-155.012
		c84.696-0.901,154.103,67.026,155.004,151.73c0.008,0.547,0.008,1.094,0.008,1.641
		C403.481,331.666,335.755,400.325,251.629,400.902z"/>
	<path fill="#010101" d="M340.9,209.193l-57.104-4.075l-21.215-53.029c-1.209-2.896-3.512-5.2-6.408-6.409
		c-6.078-2.542-13.073,0.331-15.615,6.409l-21.207,53.029l-57.104,4.075c-3.197,0.293-6.147,1.849-8.188,4.337
		c-4.198,5.123-3.451,12.672,1.664,16.878l43.23,36.705l-13.858,55.433c-0.786,3.143-0.262,6.463,1.448,9.213
		c3.498,5.616,10.877,7.333,16.493,3.844l48.137-30.15l48.946,30.15c2.727,1.695,6.024,2.219,9.151,1.456
		c6.425-1.571,10.361-8.05,8.789-14.475l-13.889-55.471l43.23-36.705h0.039c2.48-2.042,4.044-5,4.328-8.204
		C352.363,215.61,347.495,209.779,340.9,209.193z"/>
</g>
</svg>
