<svg version="1.1" id="Layer_1" xmlns="http://www.w3.org/2000/svg" xmlns:xlink="http://www.w3.org/1999/xlink" x="0px" y="0px"
	 width="500px" height="500px" viewBox="0 0 500 500" enable-background="new 0 0 500 500" xml:space="preserve">
<g>
	<path fill="#010101" d="M452.723,45.277H45.277C20.301,45.352,0.074,65.578,0,90.555v271.63
		c0.074,24.984,20.301,45.211,45.277,45.277h113.185v45.262h181.075v-45.277h113.186c24.968-0.084,45.194-20.311,45.277-45.277
		V90.538C497.917,65.569,477.69,45.352,452.723,45.277z M452.723,362.185H45.277V90.555h407.445V362.185z M407.445,158.462h-249
		v45.277h249V158.462z M407.445,249h-249v45.278h249V249z M135.815,158.462H90.538v45.277h45.277V158.462z M135.815,249H90.538
		v45.278h45.277V249z"/>
</g>
</svg>