<svg version="1.1" id="Layer_1" xmlns="http://www.w3.org/2000/svg" xmlns:xlink="http://www.w3.org/1999/xlink" x="0px" y="0px"
	 width="500px" height="500px" viewBox="0 0 500 500" enable-background="new 0 0 500 500" xml:space="preserve">
<g>
	<path fill="#010101" d="M251,194.656c-30.574,0-55.344,24.771-55.344,55.344c0,30.574,24.77,55.345,55.344,55.345
		s55.344-24.771,55.344-55.345C306.247,219.475,281.541,194.753,251,194.656z"/>
	<path fill="#010101" d="M444.721,1c-0.032,0-0.032,0-0.064,0H57.344C26.803,0.984,2.016,25.738,2,56.279c0,0.017,0,0.049,0,0.065
		v387.312C1.984,474.197,26.738,499,57.279,499c0.016,0,0.049,0,0.065,0h387.312C475.197,499,500,474.263,500,443.721
		c0-0.032,0-0.032,0-0.064V56.344C500,25.803,475.262,1.017,444.721,1z M396.25,250.017c-0.064,6.306-0.519,12.563-1.395,18.788
		l40.949,32.13c3.696,3.016,4.604,8.333,2.205,12.45l-38.744,66.951c-2.465,4.021-7.425,5.771-11.899,4.15l-48.114-19.356
		c-10.051,7.749-21.009,14.169-32.648,19.097l-7.197,51.194c-0.811,4.766-4.896,8.235-9.694,8.3h-77.456
		c-4.733-0.032-8.786-3.404-9.694-8.04l-7.165-51.227c-11.688-4.896-22.663-11.315-32.648-19.097l-48.131,19.388
		c-4.441,1.589-9.418-0.129-11.882-4.149l-38.744-66.951c-2.416-4.118-1.475-9.402,2.221-12.45l40.933-32.098
		c-0.875-6.339-1.345-12.709-1.394-19.097c0.049-6.306,0.502-12.579,1.394-18.82l-40.965-32.082c-3.696-3.031-4.636-8.3-2.221-12.45
		l38.744-66.951c2.464-4.037,7.441-5.771,11.883-4.15l48.13,19.355c10.019-7.732,20.993-14.152,32.649-19.096l7.197-51.194
		c0.795-4.75,4.88-8.235,9.694-8.3h77.456c4.733,0.032,8.786,3.388,9.694,8.041l7.197,51.194
		c11.704,4.879,22.663,11.299,32.648,19.08l48.114-19.356c4.475-1.605,9.435,0.13,11.899,4.15l38.744,66.968
		c2.398,4.134,1.491,9.402-2.205,12.45l-40.949,32.098C395.731,237.274,396.186,243.629,396.25,250.017z"/>
</g>
</svg>
