<svg version="1.1" id="Layer_1" xmlns="http://www.w3.org/2000/svg" xmlns:xlink="http://www.w3.org/1999/xlink" x="0px" y="0px"
	 width="500px" height="500px" viewBox="0 0 500 500" enable-background="new 0 0 500 500" xml:space="preserve">
<g>
	<path fill="#010101" d="M150.738,399.383c-0.059,0-0.117,0-0.175,0c-27.516,0-49.808,22.293-49.808,49.809S123.047,499,150.562,499
		c27.501,0,49.809-22.293,49.809-49.809C200.415,421.733,178.195,399.441,150.738,399.383z"/>
	<path fill="#010101" d="M399.723,399.383c-0.059,0-0.117,0-0.176,0c-27.516,0-49.809,22.293-49.809,49.809S372.031,499,399.547,499
		c27.486,0,49.809-22.293,49.809-49.809C449.385,421.733,427.18,399.441,399.723,399.383z"/>
	<path fill="#010101" d="M155.552,315.464l22.41-40.56h185.491c18.119,0.059,34.811-9.774,43.563-25.633l89.171-161.622
		c1.984-3.662,3.035-7.776,2.977-11.949c-0.059-13.729-11.146-24.846-24.89-24.89H105.977L82.59,1.002H1.167V50.81h49.808
		l89.638,188.993l-33.614,60.984c-4.114,7.266-6.259,15.523-6.215,23.896c0.088,27.458,22.322,49.722,49.779,49.809h298.793v-49.809
		H161.023c-3.399,0.029-6.186-2.684-6.215-6.098c0-0.029,0-0.088,0-0.117L155.552,315.464z"/>
</g>
</svg>
