<svg version="1.1" id="Layer_1" xmlns="http://www.w3.org/2000/svg" xmlns:xlink="http://www.w3.org/1999/xlink" x="0px" y="0px"
	 width="500px" height="500px" viewBox="0 0 500 500" enable-background="new 0 0 500 500" xml:space="preserve">
<g>
	<path fill="#010101" d="M249,0C111.479,0,0,111.466,0,249c0,137.533,111.479,249,249,249c137.533,0,249-111.467,249-249
		C498,111.466,386.533,0,249,0z M249,448.199c-110.02,0-199.2-89.191-199.2-199.199c0-110.007,89.18-199.2,199.2-199.2
		c110.008,0,199.2,89.193,199.2,199.2C448.2,359.008,359.008,448.199,249,448.199z"/>
	<path fill="#010101" d="M362.023,150.883c-2.384-2.578-4.863-5.058-7.441-7.465C326.618,115.333,288.636,99.551,249,99.6V249
		L143.418,354.582c56.256,60.354,150.787,63.709,211.164,7.44C414.936,305.779,418.291,211.261,362.023,150.883z"/>
</g>
</svg>
