<svg version="1.1" id="Layer_1" xmlns="http://www.w3.org/2000/svg" xmlns:xlink="http://www.w3.org/1999/xlink" x="0px" y="0px"
	 width="500px" height="500px" viewBox="0 0 500 500" enable-background="new 0 0 500 500" xml:space="preserve">
<path fill="#010101" d="M323.721,141.548v93.909h23.471v46.969h-70.439V94.58h46.969L253.281,0.67L182.843,94.58h46.969v187.846
	h-70.439V233.82c25.424-12.974,35.508-44.093,22.549-69.517c-12.974-25.41-44.093-35.508-69.517-22.535
	c-25.424,12.959-35.508,44.093-22.549,69.503c4.953,9.713,12.85,17.596,22.549,22.549v48.606
	c-0.096,25.836,20.788,46.857,46.625,46.968c0.124,0,0.234,0,0.344,0h70.439v71.622c-25.411,12.959-35.481,44.079-22.508,69.476
	c12.96,25.424,44.079,35.495,69.476,22.507c25.424-12.959,35.494-44.078,22.508-69.475c-4.953-9.686-12.822-17.555-22.508-22.508
	v-71.622h70.439c25.863,0.083,46.857-20.802,46.94-46.665c0-0.111,0-0.193,0-0.303v-46.969h23.47v-93.909H323.721z"/>
</svg>