<svg version="1.1" id="Layer_1" xmlns="http://www.w3.org/2000/svg" xmlns:xlink="http://www.w3.org/1999/xlink" x="0px" y="0px"
	 width="500px" height="500px" viewBox="0 0 500 500" enable-background="new 0 0 500 500" xml:space="preserve">
<path fill="#010101" d="M265.799,204.748c-24.992-70.694-102.553-107.738-173.26-82.759C21.845,146.98-15.199,224.556,9.793,295.249
	c24.992,70.694,102.554,107.737,173.248,82.759c38.675-13.683,69.077-44.098,82.758-82.759h98.431v90.528h90.502v-90.502h45.265
	v-90.528H265.799z M137.962,295.275c-25.005,0-45.264-20.258-45.264-45.264c0-25.005,20.259-45.264,45.264-45.264
	c24.992,0,45.264,20.259,45.264,45.264C183.146,274.99,162.928,295.196,137.962,295.275z"/>
</svg>